<svg width="24" height="24" viewBox="0 0 24 24" fill="none" xmlns="http://www.w3.org/2000/svg">
<g clip-path="url(#clip0_509_1389)">
<path fill-rule="evenodd" clip-rule="evenodd" d="M4.98001 11.264L9.68101 13.542C9.8789 13.6381 10.0425 13.7926 10.1498 13.9847C10.2571 14.1767 10.3029 14.3971 10.281 14.616C10.2579 14.8351 10.1676 15.0417 10.0227 15.2076C9.8777 15.3735 9.68504 15.4907 9.47101 15.543L4.39301 16.8C4.16855 16.8543 3.93265 16.8359 3.71931 16.7475C3.50597 16.659 3.32623 16.5051 3.20601 16.308C3.1281 16.1767 3.07838 16.0306 3.06001 15.879C2.90517 14.532 3.04995 13.1675 3.48401 11.883C3.53317 11.7385 3.61268 11.6061 3.7172 11.4949C3.82172 11.3836 3.94884 11.296 4.09001 11.238C4.2317 11.1803 4.38385 11.1529 4.53676 11.1573C4.68966 11.1618 4.83994 11.1981 4.97801 11.264M6.86201 20.879L10.362 17.018C10.5104 16.854 10.7055 16.7395 10.921 16.69C11.1364 16.6404 11.362 16.6582 11.567 16.741C11.7707 16.8237 11.9443 16.9667 12.0645 17.1508C12.1848 17.3348 12.246 17.5512 12.24 17.771L12.057 22.966C12.0515 23.1188 12.0133 23.2686 11.945 23.4054C11.8767 23.5422 11.7798 23.6628 11.661 23.759C11.5418 23.8557 11.4033 23.9258 11.2549 23.9648C11.1064 24.0038 10.9513 24.0107 10.8 23.985C9.45631 23.7605 8.17746 23.2466 7.05201 22.479C6.92562 22.3928 6.81916 22.2806 6.7398 22.1499C6.66045 22.0191 6.61006 21.8729 6.59201 21.721C6.57442 21.5695 6.5894 21.416 6.63597 21.2708C6.68254 21.1256 6.75961 20.992 6.86201 20.879ZM15.16 15.74L20.135 17.346C20.2805 17.3931 20.4143 17.4707 20.5275 17.5734C20.6408 17.6762 20.7309 17.8018 20.792 17.942C20.853 18.0819 20.883 18.2333 20.8801 18.3858C20.8771 18.5384 20.8413 18.6885 20.775 18.826C20.1871 20.0502 19.3382 21.1309 18.288 21.992C18.1695 22.0894 18.0316 22.1606 17.8834 22.2006C17.7353 22.2407 17.5803 22.2488 17.4288 22.2244C17.2773 22.2 17.1327 22.1437 17.0046 22.0591C16.8766 21.9746 16.768 21.8637 16.686 21.734L13.913 17.326C13.796 17.1399 13.7394 16.9222 13.7511 16.7027C13.7627 16.4832 13.842 16.2726 13.978 16.1C14.1146 15.9263 14.3011 15.7986 14.5124 15.7342C14.7238 15.6699 14.9498 15.6719 15.16 15.74ZM20.219 12.588L15.19 14.021C14.9776 14.0811 14.7519 14.0751 14.543 14.0036C14.3341 13.9321 14.152 13.7987 14.021 13.621C13.8912 13.4435 13.8194 13.2302 13.8157 13.0103C13.8119 12.7904 13.8763 12.5748 14 12.393L16.926 8.08497C17.0119 7.95863 17.1236 7.85195 17.2537 7.77197C17.3839 7.69198 17.5295 7.64052 17.681 7.62097C17.8328 7.60238 17.9867 7.61564 18.1331 7.65989C18.2795 7.70414 18.415 7.77841 18.531 7.87797C19.5543 8.77229 20.3668 9.88222 20.91 11.128C20.9715 11.2682 21.0022 11.42 21 11.5731C20.9978 11.7262 20.9628 11.877 20.8973 12.0155C20.8317 12.1539 20.7373 12.2766 20.6203 12.3754C20.5033 12.4741 20.3664 12.5466 20.219 12.588ZM8.46901 0.467971C7.58017 0.703408 6.71486 1.02007 5.88401 1.41397C5.75047 1.47787 5.6315 1.56855 5.53448 1.68037C5.43745 1.79219 5.36445 1.92276 5.32001 2.06397C5.27609 2.20476 5.26203 2.35317 5.27873 2.4997C5.29544 2.64624 5.34253 2.78768 5.41701 2.91497L10.332 11.371C10.4509 11.576 10.6341 11.7361 10.8533 11.8263C11.0724 11.9165 11.3152 11.9319 11.544 11.87C11.7731 11.8107 11.9759 11.677 12.1205 11.4898C12.2652 11.3026 12.3435 11.0725 12.343 10.836V1.07197C12.3439 0.849049 12.2748 0.63148 12.1454 0.449922C12.016 0.268365 11.833 0.131974 11.622 0.0599706C11.4817 0.0116866 11.333 -0.00770247 11.185 0.00297061C10.267 0.0749706 9.35901 0.230971 8.47001 0.467971" fill="white"/>
</g>
<defs>
<clipPath id="clip0_509_1389">
<rect width="24" height="24" fill="white"/>
</clipPath>
</defs>
</svg>
