<svg width="20" height="20" viewBox="0 0 20 20" fill="none" xmlns="http://www.w3.org/2000/svg">
<path d="M10.8837 1.87477C10.6493 1.64043 10.3315 1.50879 10 1.50879C9.66854 1.50879 9.35066 1.64043 9.11625 1.87477L0.807496 10.1823C0.749386 10.2404 0.703291 10.3094 0.671842 10.3853C0.640393 10.4612 0.624207 10.5426 0.624207 10.6248C0.624207 10.707 0.640393 10.7883 0.671842 10.8643C0.703291 10.9402 0.749386 11.0092 0.807496 11.0673C0.924854 11.1846 1.08403 11.2506 1.25 11.2506C1.33218 11.2506 1.41355 11.2344 1.48948 11.2029C1.5654 11.1715 1.63439 11.1254 1.6925 11.0673L10 2.75852L18.3075 11.0673C18.4249 11.1846 18.584 11.2506 18.75 11.2506C18.916 11.2506 19.0751 11.1846 19.1925 11.0673C19.3099 10.9499 19.3758 10.7907 19.3758 10.6248C19.3758 10.4588 19.3099 10.2996 19.1925 10.1823L16.25 7.24102V3.12477C16.25 2.95901 16.1841 2.80004 16.0669 2.68283C15.9497 2.56562 15.7908 2.49977 15.625 2.49977H14.375C14.2092 2.49977 14.0503 2.56562 13.9331 2.68283C13.8158 2.80004 13.75 2.95901 13.75 3.12477V4.74102L10.8837 1.87477Z" fill="white"/>
<path d="M10 4.11621L15.89 10.0062C14.85 9.95708 13.8168 10.1976 12.9053 10.7009C11.9939 11.2042 11.2401 11.9506 10.7277 12.857C10.2154 13.7633 9.96467 14.7941 10.0035 15.8346C10.0423 16.875 10.3691 17.8843 10.9475 18.75H4.375C3.87772 18.75 3.40081 18.5524 3.04917 18.2008C2.69754 17.8492 2.5 17.3722 2.5 16.875V11.6162L10 4.11621Z" fill="white"/>
<path d="M15.625 20C16.7853 20 17.8981 19.5391 18.7186 18.7186C19.5391 17.8981 20 16.7853 20 15.625C20 14.4647 19.5391 13.3519 18.7186 12.5314C17.8981 11.7109 16.7853 11.25 15.625 11.25C14.4647 11.25 13.3519 11.7109 12.5314 12.5314C11.7109 13.3519 11.25 14.4647 11.25 15.625C11.25 16.7853 11.7109 17.8981 12.5314 18.7186C13.3519 19.5391 14.4647 20 15.625 20ZM17.7238 14.3837L16.055 17.1662C15.9817 17.2885 15.8814 17.3924 15.7619 17.4701C15.6424 17.5478 15.5067 17.5972 15.3652 17.6145C15.2237 17.6319 15.0801 17.6167 14.9454 17.5702C14.8106 17.5238 14.6882 17.4471 14.5875 17.3462L13.62 16.38C13.5028 16.2626 13.437 16.1035 13.4372 15.9377C13.4373 15.7718 13.5033 15.6128 13.6206 15.4956C13.738 15.3784 13.8971 15.3127 14.0629 15.3128C14.2288 15.3129 14.3878 15.3789 14.505 15.4963L15.1888 16.18L16.6512 13.7413C16.6934 13.6708 16.7491 13.6094 16.815 13.5605C16.8809 13.5116 16.9558 13.4761 17.0355 13.4562C17.1151 13.4362 17.1979 13.4321 17.2791 13.4441C17.3603 13.4562 17.4383 13.4841 17.5087 13.5263C17.5792 13.5684 17.6406 13.6241 17.6895 13.69C17.7384 13.7559 17.7739 13.8308 17.7938 13.9105C17.8138 13.9901 17.8179 14.0729 17.8059 14.1541C17.7938 14.2353 17.7659 14.3133 17.7238 14.3837Z" fill="white"/>
</svg>
