<svg width="24" height="24" viewBox="0 0 24 24" fill="none" xmlns="http://www.w3.org/2000/svg">
<path d="M17 20C16.7167 20 16.4793 19.904 16.288 19.712C16.0967 19.52 16.0007 19.2827 16 19V14C16 13.7167 16.096 13.4793 16.288 13.288C16.48 13.0967 16.7173 13.0007 17 13H19C19.2833 13 19.521 13.096 19.713 13.288C19.905 13.48 20.0007 13.7173 20 14V19C20 19.2833 19.904 19.521 19.712 19.713C19.52 19.905 19.2827 20.0007 19 20H17ZM11 20C10.7167 20 10.4793 19.904 10.288 19.712C10.0967 19.52 10.0007 19.2827 10 19V5C10 4.71667 10.096 4.47933 10.288 4.288C10.48 4.09667 10.7173 4.00067 11 4H13C13.2833 4 13.521 4.096 13.713 4.288C13.905 4.48 14.0007 4.71733 14 5V19C14 19.2833 13.904 19.521 13.712 19.713C13.52 19.905 13.2827 20.0007 13 20H11ZM5 20C4.71667 20 4.47933 19.904 4.288 19.712C4.09667 19.52 4.00067 19.2827 4 19V10C4 9.71667 4.096 9.47933 4.288 9.288C4.48 9.09667 4.71733 9.00067 5 9H7C7.28333 9 7.521 9.096 7.713 9.288C7.905 9.48 8.00067 9.71733 8 10V19C8 19.2833 7.904 19.521 7.712 19.713C7.52 19.905 7.28267 20.0007 7 20H5Z" fill="white"/>
</svg>
