<svg width="24" height="24" viewBox="0 0 24 24" fill="none" xmlns="http://www.w3.org/2000/svg">
<path fill-rule="evenodd" clip-rule="evenodd" d="M0 5.625C0 5.32663 0.118526 5.04048 0.329505 4.8295C0.540483 4.61853 0.826631 4.5 1.125 4.5H22.875C23.1734 4.5 23.4595 4.61853 23.6705 4.8295C23.8815 5.04048 24 5.32663 24 5.625C24 5.92337 23.8815 6.20952 23.6705 6.4205C23.4595 6.63147 23.1734 6.75 22.875 6.75H1.125C0.826631 6.75 0.540483 6.63147 0.329505 6.4205C0.118526 6.20952 0 5.92337 0 5.625ZM0 12C0 11.7016 0.118526 11.4155 0.329505 11.2045C0.540483 10.9935 0.826631 10.875 1.125 10.875H22.875C23.1734 10.875 23.4595 10.9935 23.6705 11.2045C23.8815 11.4155 24 11.7016 24 12C24 12.2984 23.8815 12.5845 23.6705 12.7955C23.4595 13.0065 23.1734 13.125 22.875 13.125H1.125C0.826631 13.125 0.540483 13.0065 0.329505 12.7955C0.118526 12.5845 0 12.2984 0 12ZM1.125 17.25C0.826631 17.25 0.540483 17.3685 0.329505 17.5795C0.118526 17.7905 0 18.0766 0 18.375C0 18.6734 0.118526 18.9595 0.329505 19.1705C0.540483 19.3815 0.826631 19.5 1.125 19.5H22.875C23.1734 19.5 23.4595 19.3815 23.6705 19.1705C23.8815 18.9595 24 18.6734 24 18.375C24 18.0766 23.8815 17.7905 23.6705 17.5795C23.4595 17.3685 23.1734 17.25 22.875 17.25H1.125Z" fill="white"/>
</svg>
